<?xml version="1.0" standalone="no"?><!DOCTYPE svg PUBLIC "-//W3C//DTD SVG 1.1//EN" "http://www.w3.org/Graphics/SVG/1.1/DTD/svg11.dtd"><svg t="1656734403945" class="icon" viewBox="0 0 1024 1024" version="1.1" xmlns="http://www.w3.org/2000/svg" p-id="7099" xmlns:xlink="http://www.w3.org/1999/xlink" width="200" height="200"><defs><style type="text/css">@font-face { font-family: feedback-iconfont; src: url("//at.alicdn.com/t/font_1031158_u69w8yhxdu.woff2?t=1630033759944") format("woff2"), url("//at.alicdn.com/t/font_1031158_u69w8yhxdu.woff?t=1630033759944") format("woff"), url("//at.alicdn.com/t/font_1031158_u69w8yhxdu.ttf?t=1630033759944") format("truetype"); }
</style></defs><path d="M733.713888 289.13335C700.031213 255.471252 699.208179 201.583089 731.800333 168.970359 764.392487 136.378205 818.301226 137.221815 851.963324 170.883913 885.645998 204.566588 886.489608 258.454751 853.876879 291.046905 821.284725 323.659634 767.396562 322.816024 733.713888 289.13335ZM824.679741 198.167497C806.552413 180.060745 777.519882 179.5875 759.968678 197.138704 742.417474 214.710484 742.890719 243.722439 760.997471 261.849767 779.124799 279.977095 808.15733 280.429764 825.708534 262.87856 843.259738 245.327356 842.807069 216.294825 824.679741 198.167497ZM1004.574438 485.838521C993.813266 485.756218 984.821618 476.764569 984.657011 465.921094L979.266137 124.876302C982.640577 72.654783 937.023908 49.136581 897.10675 44.548166L566.102975 39.36305 47.467982 558.018619 465.919139 976.4492 911.633303 530.735036C919.164066 523.204273 931.591882 523.389456 939.369555 531.167129 947.147228 538.944802 947.332411 551.372618 939.801648 558.903381L480.445692 1018.279912C472.894354 1025.810675 460.487113 1025.604917 452.70944 1017.827244L6.089939 571.207742C-1.687734 563.430069-1.893493 551.022829 5.63727 543.47149L543.572414 5.556921C547.193765 1.914995 552.13197-0.060287 557.337661 0.022016L898.403028 5.454042C973.998718 14.157628 1022.557735 64.115803 1018.442565 127.077919L1023.915742 466.579521C1024.080349 477.422996 1015.397338 486.023704 1004.574438 485.838521Z" p-id="7100"></path></svg>