<?xml version="1.0" standalone="no"?><!DOCTYPE svg PUBLIC "-//W3C//DTD SVG 1.1//EN" "http://www.w3.org/Graphics/SVG/1.1/DTD/svg11.dtd"><svg t="1656740999100" class="icon" viewBox="0 0 1251 1024" version="1.1" xmlns="http://www.w3.org/2000/svg" p-id="8944" xmlns:xlink="http://www.w3.org/1999/xlink" width="244.3359375" height="200"><defs><style type="text/css">@font-face { font-family: feedback-iconfont; src: url("//at.alicdn.com/t/font_1031158_u69w8yhxdu.woff2?t=1630033759944") format("woff2"), url("//at.alicdn.com/t/font_1031158_u69w8yhxdu.woff?t=1630033759944") format("woff"), url("//at.alicdn.com/t/font_1031158_u69w8yhxdu.ttf?t=1630033759944") format("truetype"); }
</style></defs><path d="M850.204444 475.591111a28.444444 28.444444 0 0 0 0-56.888889h-184.32l202.524445-166.684444a29.098667 29.098667 0 1 0-36.977778-44.942222l-212.764444 174.933333-212.764445-174.933333A28.444444 28.444444 0 1 0 369.777778 250.595556l202.524444 166.684444h-187.733333a28.444444 28.444444 0 0 0 0 56.888889h203.662222v87.324444h-203.662222a28.444444 28.444444 0 0 0 0 56.888889h203.662222V796.444444a28.444444 28.444444 0 1 0 56.888889 0v-175.502222h203.662222a28.444444 28.444444 0 0 0 0-56.888889h-202.24v-88.462222z" p-id="8945"></path><path d="M1227.946667 371.768889l23.608889-3.982222V199.111111a199.111111 199.111111 0 0 0-199.111112-199.111111H199.111111a199.111111 199.111111 0 0 0-199.111111 199.111111v168.675556l23.608889 3.982222a142.222222 142.222222 0 0 1 0 280.462222l-23.608889 3.982222V824.888889a199.111111 199.111111 0 0 0 199.111111 199.111111h853.333333a199.111111 199.111111 0 0 0 199.111112-199.111111v-168.675556l-23.608889-3.982222a142.222222 142.222222 0 0 1 0-280.462222zM1052.444444 512a199.111111 199.111111 0 0 0 142.222223 190.862222V824.888889a142.222222 142.222222 0 0 1-142.222223 142.222222H199.111111a142.222222 142.222222 0 0 1-142.222222-142.222222v-122.026667a199.111111 199.111111 0 0 0 0-381.724444V199.111111a142.222222 142.222222 0 0 1 142.222222-142.222222h853.333333a142.222222 142.222222 0 0 1 142.222223 142.222222v122.026667A199.111111 199.111111 0 0 0 1052.444444 512z" p-id="8946"></path></svg>