<?xml version="1.0" standalone="no"?><!DOCTYPE svg PUBLIC "-//W3C//DTD SVG 1.1//EN" "http://www.w3.org/Graphics/SVG/1.1/DTD/svg11.dtd"><svg t="1656145735457" class="icon" viewBox="0 0 1024 1024" version="1.1" xmlns="http://www.w3.org/2000/svg" p-id="2176" xmlns:xlink="http://www.w3.org/1999/xlink" width="200" height="200"><defs><style type="text/css"></style></defs><path d="M512 1024C229.248 1024 0 794.752 0 512S229.248 0 512 0s512 229.248 512 512-229.248 512-512 512z m200.746667-478.506667l1.749333-1.664 30.165333-30.165333-330.496-330.581333a42.837333 42.837333 0 0 0-60.288 0 42.538667 42.538667 0 0 0 0 60.330666l270.08 270.165334-270.08 269.952a42.496 42.496 0 0 0 0 60.288c16.64 16.64 43.861333 16.469333 60.288 0.042666l298.581334-298.368z" fill="#3D3D3D" p-id="2177"></path></svg>